<?xml version="1.0" encoding="utf-8"?>
<!-- Generator: Adobe Illustrator 24.0.1, SVG Export Plug-In . SVG Version: 6.00 Build 0)  -->
<svg version="1.1" id="Layer_1" xmlns="http://www.w3.org/2000/svg" xmlns:xlink="http://www.w3.org/1999/xlink" x="0px" y="0px"
	 viewBox="0 0 40 31" style="enable-background:new 0 0 40 31;" xml:space="preserve">
<style type="text/css">
	.st0{opacity:0.9;}
	.st1{fill:url(#SVGID_1_);}
	.st2{display:none;fill:url(#SVGID_2_);}
	.st3{display:none;fill:url(#SVGID_3_);}
	.st4{fill:url(#SVGID_4_);}
</style>
<g class="st0">
	
		<linearGradient id="SVGID_1_" gradientUnits="userSpaceOnUse" x1="6.5" y1="32" x2="6.5" y2="1.9" gradientTransform="matrix(1 0 0 -1 0 32)">
		<stop  offset="0" style="stop-color:#000000"/>
		<stop  offset="1" style="stop-color:#3D3D3D"/>
	</linearGradient>
	<path class="st1" d="M13,0.4v29.3H7V6.3H6.8L0,10.5V5l7.2-4.6H13z"/>
	
		<linearGradient id="SVGID_2_" gradientUnits="userSpaceOnUse" x1="28.854" y1="32" x2="28.854" y2="1.9" gradientTransform="matrix(1 0 0 -1 0 32)">
		<stop  offset="0" style="stop-color:#000000"/>
		<stop  offset="1" style="stop-color:#3D3D3D"/>
	</linearGradient>
	<path class="st2" d="M28.8,30.1c-2.2,0-4-0.3-5.7-1c-1.7-0.8-3-1.8-4-3.1c-0.9-1.3-1.4-3-1.4-4.6h6.2c0,0.8,0.3,1.4,0.7,2
		c0.4,0.5,1,0.9,1.7,1.2c0.7,0.3,1.6,0.4,2.5,0.4c1,0,1.7-0.2,2.5-0.5c0.7-0.3,1.3-0.8,1.7-1.4s0.6-1.2,0.6-2s-0.2-1.5-0.7-2.1
		c-0.4-0.6-1-1-1.8-1.4s-1.8-0.5-2.9-0.5h-2.7v-4.6h2.7c0.9,0,1.7-0.2,2.5-0.5c0.7-0.3,1.3-0.7,1.7-1.3c0.4-0.6,0.6-1.3,0.6-2
		c0.1-1.4-0.7-2.7-2-3.3c-1.4-0.6-3.1-0.6-4.5,0c-0.7,0.2-1.2,0.7-1.7,1.2c-0.4,0.6-0.6,1.2-0.6,2h-6c0-1.7,0.6-3.2,1.5-4.5
		c1-1.3,2.2-2.3,3.8-3C25,0.4,26.8,0,28.8,0s3.8,0.4,5.3,1.1s2.7,1.7,3.6,3c0.8,1.2,1.2,2.7,1.2,4.2c0,1.6-0.5,3-1.5,4
		c-1.1,1.2-2.5,1.9-4,2.2v0.2c2.2,0.3,3.8,1,5,2.2c1.1,1.3,1.7,2.9,1.6,4.6c0,1.7-0.5,3.1-1.4,4.4c-1,1.4-2.4,2.4-4,3.1
		C32.9,29.8,30.9,30.1,28.8,30.1z"/>
</g>
<linearGradient id="SVGID_3_" gradientUnits="userSpaceOnUse" x1="-72.0985" y1="29.1405" x2="-72.0985" y2="6.8" gradientTransform="matrix(-1 0 0 1 -41.652 0)">
	<stop  offset="0" style="stop-color:#000000"/>
	<stop  offset="1" style="stop-color:#3D3D3D"/>
</linearGradient>
<path class="st3" d="M33.2,29.1c-2.1,0-3.6,0.1-6.3-0.5c-1.6-0.7-3-1.7-4-3.1c-0.9-1.3-1.4-2.7-1.4-4.4c-0.1-1.7,0.5-3.3,1.6-4.6
	c1.3-1.3,2.2-2.5,5.6-3.2l0.7-1.9l4.7-4.6l1.5,0.6l1,0.8c-0.6,4-7.4,9.2-8.2,9.6c-0.8,0.4-0.8,0.5-1.8,1.4c-0.5,0.6-1.2,1.8-1.2,2.6
	c0,0.8,0.7,0.9,1.1,1.5c0.4,0.6,1.3,0.8,2,1.1c1.1,0.2,2.8,0.6,3.8,0.6c0.9,0,2.3,0.1,3,0.1c0.9,0,1.2,0,2.2,0c0.9,0,0.5,0,1.8,0
	v3.9c-1.8,0-2.1,0-4.3,0"/>
<linearGradient id="SVGID_4_" gradientUnits="userSpaceOnUse" x1="28.854" y1="29.6534" x2="28.854" y2="0.4466">
	<stop  offset="0" style="stop-color:#000000"/>
	<stop  offset="1" style="stop-color:#3D3D3D"/>
</linearGradient>
<path class="st4" d="M24.5,13.7c-1.3,1.4-2.2,2.9-2.7,4.3c-0.5,1.5-0.7,2.9-0.8,4.4c0,2.1,0,3.9-0.1,5.3c0,2.1,1.5,1.9,2.9,1.9
	c1.2,0,4-0.1,6.6,0l7.6-0.1L38,25.4l-4.3,0.3c-1.9,0.1-1.8,0.1-2.8,0.1c-1,0-1.2,0-1.9-0.1c-0.7-0.1-2.3-0.7-2.8-1.2
	c-1-0.9-0.6-4.8,0.5-5.7c2.8-2.3,2.5-2.1,3.7-3c1.1-0.8,1.4-1.2,2.2-1.8c0.7-0.5,0.3-0.2,1.5-1.1l0.7-0.8c0.2-0.1,0.6-0.9,0.7-1
	c0.8-0.8,1.3-2.4,1.3-3.7c0-1.2-0.3-2.4-1-3.5c-0.7-1.1-1.7-1.9-3-2.5s-2.7-0.9-4.4-0.9c-1.7,0-3.1,0.3-4.4,0.9
	c-1.3,0.6-2.3,1.4-3.1,2.5c-0.7,1.1-1.2,2.3-1.2,3.7h5c0-0.7,0.2-1.2,0.5-1.7c0.4-0.4,0.9-0.8,1.4-1c1.2-0.5,2.5-0.5,3.7,0
	c1,0.5,1.7,1.6,1.7,2.7c0,0.6-0.2,1.2-0.5,1.7c-0.1,0.2-0.3,0.4-0.5,0.5"/>
</svg>
